<?xml version="1.0" encoding="UTF-8" standalone="no"?>
<svg
   xmlns:dc="http://purl.org/dc/elements/1.1/"
   xmlns:cc="http://creativecommons.org/ns#"
   xmlns:rdf="http://www.w3.org/1999/02/22-rdf-syntax-ns#"
   xmlns:svg="http://www.w3.org/2000/svg"
   xmlns="http://www.w3.org/2000/svg"
   xmlns:sodipodi="http://sodipodi.sourceforge.net/DTD/sodipodi-0.dtd"
   xmlns:inkscape="http://www.inkscape.org/namespaces/inkscape"
   version="1.1"
   viewBox="0 0 800 400"
   id="svg2"
   inkscape:version="0.91 r13725"
   sodipodi:docname="graphic.svg">
  <metadata
     id="metadata302">
    <rdf:RDF>
      <cc:Work
         rdf:about="">
        <dc:format>image/svg+xml</dc:format>
        <dc:type
           rdf:resource="http://purl.org/dc/dcmitype/StillImage" />
      </cc:Work>
    </rdf:RDF>
  </metadata>
  <defs
     id="defs300" />
  <sodipodi:namedview
     pagecolor="#ffffff"
     bordercolor="#666666"
     borderopacity="1"
     objecttolerance="10"
     gridtolerance="10"
     guidetolerance="10"
     inkscape:pageopacity="0"
     inkscape:pageshadow="2"
     inkscape:window-width="1014"
     inkscape:window-height="688"
     id="namedview298"
     showgrid="false"
     inkscape:zoom="0.87333984"
     inkscape:cx="459.98648"
     inkscape:cy="200"
     inkscape:window-x="0"
     inkscape:window-y="23"
     inkscape:window-maximized="0"
     inkscape:current-layer="svg2" />
  <text
     x="315"
     y="385"
     text-anchor="middle"
     id="text4">bp - position</text>
  <text
     x="0"
     y="170"
     text-anchor="middle"
     transform="rotate(-90, 15, 170)"
     id="text6">% - bp</text>
  <g
     id="g8">
    <polygon
       points="624.1999999999998,340 618.3999999999999,340 612.5999999999999,340 606.8,340 601,340 595.2,340 589.4000000000001,340 583.6000000000001,340 577.8000000000002,340 572.0000000000002,340 566.2000000000003,340 560.4000000000003,340 554.6000000000004,340 548.8000000000004,340 543.0000000000005,340 537.2000000000005,340 531.4000000000005,340 525.6000000000006,340 519.8000000000006,340 514.0000000000007,340 508.20000000000067,340 502.40000000000066,340 496.60000000000065,340 490.80000000000064,340 485.0000000000006,340 479.2000000000006,340 473.4000000000006,340 467.6000000000006,340 461.8000000000006,340 456.00000000000057,340 450.20000000000056,340 444.40000000000055,340 438.60000000000053,340 432.8000000000005,340 427.0000000000005,340 421.2000000000005,340 415.4000000000005,340 409.6000000000005,340 403.80000000000047,340 398.00000000000045,340 392.20000000000044,340 386.40000000000043,340 380.6000000000004,340 374.8000000000004,340 369.0000000000004,340 363.2000000000004,340 357.4000000000004,340 351.60000000000036,340 345.80000000000035,340 340.00000000000034,340 334.20000000000033,340 328.4000000000003,340 322.6000000000003,340 316.8000000000003,340 311.0000000000003,340 305.2000000000003,340 299.40000000000026,340 293.60000000000025,340 287.80000000000024,340 282.0000000000002,340 276.2000000000002,340 270.4000000000002,340 264.6000000000002,340 258.8000000000002,340 253.0000000000002,340 247.2000000000002,340 241.40000000000018,340 235.60000000000016,340 229.80000000000015,340 224.00000000000014,340 218.20000000000013,340 212.40000000000012,340 206.6000000000001,340 200.8000000000001,340 195.00000000000009,340 189.20000000000007,340 183.40000000000006,340 177.60000000000005,340 171.80000000000004,340 166.00000000000003,340 160.20000000000002,340 154.4,340 148.6,340 142.79999999999998,340 136.99999999999997,340 131.19999999999996,340 125.39999999999996,340 119.59999999999997,340 113.79999999999997,340 107.99999999999997,340 102.19999999999997,340 96.39999999999998,340 90.59999999999998,340 84.79999999999998,340 78.99999999999999,340 73.19999999999999,340 67.39999999999999,340 61.599999999999994,340 55.8,340 50,340 50,40.00000000000006 55.8,339.96999699969996 61.599999999999994,339.90999099909993 67.39999999999999,40.120012001200166 73.19999999999999,339.9399939993999 78.99999999999999,340 84.79999999999998,339.9399939993999 90.59999999999998,340 96.39999999999998,340 102.19999999999997,339.96999699969996 107.99999999999997,243.03030303030306 113.79999999999997,247.7707770777078 119.59999999999997,247.89078907890791 125.39999999999996,248.25082508250827 131.19999999999996,247.41074107410742 136.99999999999997,246.96069606960697 142.79999999999998,246.66066606660667 148.6,249.09090909090912 154.4,250.53105310531055 160.20000000000002,249.00090009000903 166.00000000000003,249.99099909991 171.80000000000004,250.02100210021004 177.60000000000005,249.06090609060908 183.40000000000006,249.36093609360938 189.20000000000007,250.47104710471046 195.00000000000009,249.00090009000903 200.8000000000001,250.47104710471046 206.6000000000001,251.1011101110111 212.40000000000012,250.3810381038104 218.20000000000013,249.66096609660968 224.00000000000014,249.7809780978098 229.80000000000015,249.96099609960999 235.60000000000016,249.36093609360938 241.40000000000018,250.2010201020102 247.2000000000002,249.84098409840985 253.0000000000002,250.0810081008101 258.8000000000002,250.0810081008101 264.6000000000002,251.07110711071107 270.4000000000002,250.02100210021004 276.2000000000002,249.93099309930994 282.0000000000002,248.49084908490852 287.80000000000024,249.09090909090912 293.60000000000025,249.96099609960999 299.40000000000026,249.1809180918092 305.2000000000003,250.0810081008101 311.0000000000003,248.85088508850887 316.8000000000003,248.55085508550854 322.6000000000003,248.55085508550854 328.4000000000003,248.16081608160817 334.20000000000033,248.8808880888089 340.00000000000034,248.61086108610863 345.80000000000035,249.09090909090912 351.60000000000036,249.00090009000903 357.4000000000004,249.39093909390942 363.2000000000004,249.33093309330934 369.0000000000004,248.3708370837084 374.8000000000004,249.8709870987099 380.6000000000004,249.66096609660968 386.40000000000043,248.16081608160817 392.20000000000044,248.16081608160817 398.00000000000045,247.89078907890791 403.80000000000047,248.31083108310833 409.6000000000005,250.23102310231025 415.4000000000005,249.33093309330934 421.2000000000005,248.7008700870087 427.0000000000005,248.7008700870087 432.8000000000005,249.39093909390942 438.60000000000053,247.80078007800782 444.40000000000055,249.12091209120914 450.20000000000056,250.0810081008101 456.00000000000057,249.5709570957096 461.8000000000006,248.22082208220823 467.6000000000006,250.5010501050105 473.4000000000006,248.94089408940897 479.2000000000006,249.51095109510953 485.0000000000006,250.05100510051005 490.80000000000064,249.33093309330934 496.60000000000065,249.09090909090912 502.40000000000066,248.94089408940897 508.20000000000067,249.12091209120914 514.0000000000007,249.06090609060908 519.8000000000006,249.03090309030904 525.6000000000006,249.00090009000903 531.4000000000005,249.42094209420944 537.2000000000005,249.84098409840985 543.0000000000005,248.19081908190822 548.8000000000004,249.33093309330934 554.6000000000004,250.02100210021004 560.4000000000003,249.00090009000903 566.2000000000003,249.09090909090912 572.0000000000002,249.3009300930093 577.8000000000002,247.4707470747075 583.6000000000001,249.2709270927093 589.4000000000001,249.00090009000903 595.2,248.7008700870087 601,248.3708370837084 606.8,250.5610561056106 612.5999999999999,248.5808580858086 618.3999999999999,249.24092409240927 624.1999999999998,250.23102310231025"
       fill="#3366cc"
       stroke="white"
       stroke-width="1"
       id="polygon10" />
    <polygon
       points="624.1999999999998,250.23102310231025 618.3999999999999,249.24092409240927 612.5999999999999,248.5808580858086 606.8,250.5610561056106 601,248.3708370837084 595.2,248.7008700870087 589.4000000000001,249.00090009000903 583.6000000000001,249.2709270927093 577.8000000000002,247.4707470747075 572.0000000000002,249.3009300930093 566.2000000000003,249.09090909090912 560.4000000000003,249.00090009000903 554.6000000000004,250.02100210021004 548.8000000000004,249.33093309330934 543.0000000000005,248.19081908190822 537.2000000000005,249.84098409840985 531.4000000000005,249.42094209420944 525.6000000000006,249.00090009000903 519.8000000000006,249.03090309030904 514.0000000000007,249.06090609060908 508.20000000000067,249.12091209120914 502.40000000000066,248.94089408940897 496.60000000000065,249.09090909090912 490.80000000000064,249.33093309330934 485.0000000000006,250.05100510051005 479.2000000000006,249.51095109510953 473.4000000000006,248.94089408940897 467.6000000000006,250.5010501050105 461.8000000000006,248.22082208220823 456.00000000000057,249.5709570957096 450.20000000000056,250.0810081008101 444.40000000000055,249.12091209120914 438.60000000000053,247.80078007800782 432.8000000000005,249.39093909390942 427.0000000000005,248.7008700870087 421.2000000000005,248.7008700870087 415.4000000000005,249.33093309330934 409.6000000000005,250.23102310231025 403.80000000000047,248.31083108310833 398.00000000000045,247.89078907890791 392.20000000000044,248.16081608160817 386.40000000000043,248.16081608160817 380.6000000000004,249.66096609660968 374.8000000000004,249.8709870987099 369.0000000000004,248.3708370837084 363.2000000000004,249.33093309330934 357.4000000000004,249.39093909390942 351.60000000000036,249.00090009000903 345.80000000000035,249.09090909090912 340.00000000000034,248.61086108610863 334.20000000000033,248.8808880888089 328.4000000000003,248.16081608160817 322.6000000000003,248.55085508550854 316.8000000000003,248.55085508550854 311.0000000000003,248.85088508850887 305.2000000000003,250.0810081008101 299.40000000000026,249.1809180918092 293.60000000000025,249.96099609960999 287.80000000000024,249.09090909090912 282.0000000000002,248.49084908490852 276.2000000000002,249.93099309930994 270.4000000000002,250.02100210021004 264.6000000000002,251.07110711071107 258.8000000000002,250.0810081008101 253.0000000000002,250.0810081008101 247.2000000000002,249.84098409840985 241.40000000000018,250.2010201020102 235.60000000000016,249.36093609360938 229.80000000000015,249.96099609960999 224.00000000000014,249.7809780978098 218.20000000000013,249.66096609660968 212.40000000000012,250.3810381038104 206.6000000000001,251.1011101110111 200.8000000000001,250.47104710471046 195.00000000000009,249.00090009000903 189.20000000000007,250.47104710471046 183.40000000000006,249.36093609360938 177.60000000000005,249.06090609060908 171.80000000000004,250.02100210021004 166.00000000000003,249.99099909991 160.20000000000002,249.00090009000903 154.4,250.53105310531055 148.6,249.09090909090912 142.79999999999998,246.66066606660667 136.99999999999997,246.96069606960697 131.19999999999996,247.41074107410742 125.39999999999996,248.25082508250827 119.59999999999997,247.89078907890791 113.79999999999997,247.7707770777078 107.99999999999997,243.03030303030306 102.19999999999997,339.96999699969996 96.39999999999998,340 90.59999999999998,340 84.79999999999998,339.9399939993999 78.99999999999999,340 73.19999999999999,339.9399939993999 67.39999999999999,40.120012001200166 61.599999999999994,339.90999099909993 55.8,339.96999699969996 50,40.00000000000006 50,40.00000000000006 55.8,339.96999699969996 61.599999999999994,339.90999099909993 67.39999999999999,40.120012001200166 73.19999999999999,339.9099909990999 78.99999999999999,40.120012001200166 84.79999999999998,339.87998799879983 90.59999999999998,340 96.39999999999998,339.9399939993999 102.19999999999997,40.18001800180019 107.99999999999997,152.6612661266127 113.79999999999997,152.87128712871294 119.59999999999997,156.5916591659166 125.39999999999996,156.2616261626163 131.19999999999996,159.35193519351935 136.99999999999997,158.9018901890189 142.79999999999998,155.8115811581158 148.6,156.59165916591664 154.4,158.81188118811883 160.20000000000002,157.5517551755176 166.00000000000003,159.5619561956196 171.80000000000004,160.31203120312034 177.60000000000005,158.78187818781882 183.40000000000006,159.6519651965197 189.20000000000007,160.25202520252026 195.00000000000009,158.96189618961898 200.8000000000001,160.4020402040204 206.6000000000001,160.49204920492053 212.40000000000012,161.0621062106211 218.20000000000013,160.4620462046205 224.00000000000014,158.63186318631867 229.80000000000015,159.26192619261928 235.60000000000016,159.32193219321937 241.40000000000018,160.85208520852086 247.2000000000002,159.53195319531955 253.0000000000002,159.71197119711974 258.8000000000002,158.72187218721876 264.6000000000002,159.92199219921994 270.4000000000002,159.74197419741978 276.2000000000002,160.82208220822085 282.0000000000002,159.3519351935194 287.80000000000024,158.93189318931897 293.60000000000025,159.53195319531957 299.40000000000026,158.39183918391842 305.2000000000003,160.942094209421 311.0000000000003,158.60186018601865 316.8000000000003,158.69186918691872 322.6000000000003,158.57185718571859 328.4000000000003,159.02190219021907 334.20000000000033,158.45184518451848 340.00000000000034,158.60186018601863 345.80000000000035,159.26192619261928 351.60000000000036,158.18181818181822 357.4000000000004,158.0318031803181 363.2000000000004,159.3819381938194 369.0000000000004,157.6417641764177 374.8000000000004,158.21182118211823 380.6000000000004,157.94179417941797 386.40000000000043,157.73177317731776 392.20000000000044,157.76177617761778 398.00000000000045,157.8817881788179 403.80000000000047,157.52175217521756 409.6000000000005,159.50195019501953 415.4000000000005,158.24182418241827 421.2000000000005,157.70177017701772 427.0000000000005,157.43174317431743 432.8000000000005,158.21182118211826 438.60000000000053,157.5817581758176 444.40000000000055,158.66186618661868 450.20000000000056,157.6717671767177 456.00000000000057,158.12181218121816 461.8000000000006,157.40174017401742 467.6000000000006,159.11191119111913 473.4000000000006,158.93189318931897 479.2000000000006,158.72187218721876 485.0000000000006,159.53195319531955 490.80000000000064,158.42184218421846 496.60000000000065,158.1518151815182 502.40000000000066,159.3519351935194 508.20000000000067,159.02190219021907 514.0000000000007,158.36183618361838 519.8000000000006,159.11191119111913 525.6000000000006,159.08190819081912 531.4000000000005,159.98199819982 537.2000000000005,160.22202220222024 543.0000000000005,158.66186618661868 548.8000000000004,158.93189318931894 554.6000000000004,159.65196519651968 560.4000000000003,158.81188118811886 566.2000000000003,158.18181818181824 572.0000000000002,158.8718871887189 577.8000000000002,157.4317431743175 583.6000000000001,159.20192019201923 589.4000000000001,159.14191419141918 595.2,158.33183318331834 601,157.91179117911798 606.8,159.95199519952 612.5999999999999,158.72187218721876 618.3999999999999,159.08190819081912 624.1999999999998,160.10201020102014"
       fill="#dc3912"
       stroke="white"
       stroke-width="1"
       id="polygon12" />
    <polygon
       points="624.1999999999998,160.10201020102014 618.3999999999999,159.08190819081912 612.5999999999999,158.72187218721876 606.8,159.95199519952 601,157.91179117911798 595.2,158.33183318331834 589.4000000000001,159.14191419141918 583.6000000000001,159.20192019201923 577.8000000000002,157.4317431743175 572.0000000000002,158.8718871887189 566.2000000000003,158.18181818181824 560.4000000000003,158.81188118811886 554.6000000000004,159.65196519651968 548.8000000000004,158.93189318931894 543.0000000000005,158.66186618661868 537.2000000000005,160.22202220222024 531.4000000000005,159.98199819982 525.6000000000006,159.08190819081912 519.8000000000006,159.11191119111913 514.0000000000007,158.36183618361838 508.20000000000067,159.02190219021907 502.40000000000066,159.3519351935194 496.60000000000065,158.1518151815182 490.80000000000064,158.42184218421846 485.0000000000006,159.53195319531955 479.2000000000006,158.72187218721876 473.4000000000006,158.93189318931897 467.6000000000006,159.11191119111913 461.8000000000006,157.40174017401742 456.00000000000057,158.12181218121816 450.20000000000056,157.6717671767177 444.40000000000055,158.66186618661868 438.60000000000053,157.5817581758176 432.8000000000005,158.21182118211826 427.0000000000005,157.43174317431743 421.2000000000005,157.70177017701772 415.4000000000005,158.24182418241827 409.6000000000005,159.50195019501953 403.80000000000047,157.52175217521756 398.00000000000045,157.8817881788179 392.20000000000044,157.76177617761778 386.40000000000043,157.73177317731776 380.6000000000004,157.94179417941797 374.8000000000004,158.21182118211823 369.0000000000004,157.6417641764177 363.2000000000004,159.3819381938194 357.4000000000004,158.0318031803181 351.60000000000036,158.18181818181822 345.80000000000035,159.26192619261928 340.00000000000034,158.60186018601863 334.20000000000033,158.45184518451848 328.4000000000003,159.02190219021907 322.6000000000003,158.57185718571859 316.8000000000003,158.69186918691872 311.0000000000003,158.60186018601865 305.2000000000003,160.942094209421 299.40000000000026,158.39183918391842 293.60000000000025,159.53195319531957 287.80000000000024,158.93189318931897 282.0000000000002,159.3519351935194 276.2000000000002,160.82208220822085 270.4000000000002,159.74197419741978 264.6000000000002,159.92199219921994 258.8000000000002,158.72187218721876 253.0000000000002,159.71197119711974 247.2000000000002,159.53195319531955 241.40000000000018,160.85208520852086 235.60000000000016,159.32193219321937 229.80000000000015,159.26192619261928 224.00000000000014,158.63186318631867 218.20000000000013,160.4620462046205 212.40000000000012,161.0621062106211 206.6000000000001,160.49204920492053 200.8000000000001,160.4020402040204 195.00000000000009,158.96189618961898 189.20000000000007,160.25202520252026 183.40000000000006,159.6519651965197 177.60000000000005,158.78187818781882 171.80000000000004,160.31203120312034 166.00000000000003,159.5619561956196 160.20000000000002,157.5517551755176 154.4,158.81188118811883 148.6,156.59165916591664 142.79999999999998,155.8115811581158 136.99999999999997,158.9018901890189 131.19999999999996,159.35193519351935 125.39999999999996,156.2616261626163 119.59999999999997,156.5916591659166 113.79999999999997,152.87128712871294 107.99999999999997,152.6612661266127 102.19999999999997,40.18001800180019 96.39999999999998,339.9399939993999 90.59999999999998,340 84.79999999999998,339.87998799879983 78.99999999999999,40.120012001200166 73.19999999999999,339.9099909990999 67.39999999999999,40.120012001200166 61.599999999999994,339.90999099909993 55.8,339.96999699969996 50,40.00000000000006 50,40.00000000000006 55.8,339.9099909990999 61.599999999999994,40.06000600060014 67.39999999999999,40.060006000600104 73.19999999999999,40.00000000000006 78.99999999999999,40.060006000600104 84.79999999999998,40 90.59999999999998,339.9399939993999 96.39999999999998,40.12001200120011 102.19999999999997,40.12001200120013 107.99999999999997,99.22592259225928 113.79999999999997,93.8253825382539 119.59999999999997,100.30603060306032 125.39999999999996,96.79567956795684 131.19999999999996,96.16561656165618 136.99999999999997,97.06570657065708 142.79999999999998,94.12541254125415 148.6,96.37563756375644 154.4,98.68586858685872 160.20000000000002,97.09570957095715 166.00000000000003,98.53585358535858 171.80000000000004,99.37593759375942 177.60000000000005,98.3558355835584 183.40000000000006,99.46594659465954 189.20000000000007,99.8859885988599 195.00000000000009,98.38583858385842 200.8000000000001,98.6858685868587 206.6000000000001,100.12601260126017 212.40000000000012,100.30603060306035 218.20000000000013,99.52595259525957 224.00000000000014,99.07590759075912 229.80000000000015,99.6759675967597 235.60000000000016,99.25592559255932 241.40000000000018,100.21602160216023 247.2000000000002,99.31593159315935 253.0000000000002,99.34593459345938 258.8000000000002,98.68586858685873 264.6000000000002,99.1659165916592 270.4000000000002,99.49594959495954 276.2000000000002,100.78607860786082 282.0000000000002,99.13591359135921 287.80000000000024,98.7458745874588 293.60000000000025,99.49594959495954 299.40000000000026,97.78577857785783 305.2000000000003,99.94599459946001 311.0000000000003,98.95589558955902 316.8000000000003,98.68586858685873 322.6000000000003,98.50585058505854 328.4000000000003,99.34593459345939 334.20000000000033,98.71587158715874 340.00000000000034,98.68586858685873 345.80000000000035,99.5559555955596 351.60000000000036,99.01590159015906 357.4000000000004,98.38583858385846 363.2000000000004,99.76597659765979 369.0000000000004,98.59585958595866 374.8000000000004,98.80588058805883 380.6000000000004,99.04590459045909 386.40000000000043,99.10591059105914 392.20000000000044,99.43594359435946 398.00000000000045,99.19591959195924 403.80000000000047,98.62586258625868 409.6000000000005,100.2460246024603 415.4000000000005,99.22592259225925 421.2000000000005,98.8658865886589 427.0000000000005,98.65586558655866 432.8000000000005,100.39603960396045 438.60000000000053,98.38583858385843 444.40000000000055,98.92589258925895 450.20000000000056,98.59585958595864 456.00000000000057,98.71587158715876 461.8000000000006,98.02580258025804 467.6000000000006,100.63606360636066 473.4000000000006,100.1560156015602 479.2000000000006,98.23582358235828 485.0000000000006,99.10591059105913 490.80000000000064,98.77587758775883 496.60000000000065,98.35583558355842 502.40000000000066,99.97599759976003 508.20000000000067,99.10591059105917 514.0000000000007,98.32583258325835 519.8000000000006,100.1560156015602 525.6000000000006,98.98589858985903 531.4000000000005,99.31593159315935 537.2000000000005,100.09600960096013 543.0000000000005,99.4659465946595 548.8000000000004,98.8658865886589 554.6000000000004,99.7659765976598 560.4000000000003,98.59585958595866 566.2000000000003,98.14581458145821 572.0000000000002,99.01590159015905 577.8000000000002,98.02580258025809 583.6000000000001,99.34593459345939 589.4000000000001,99.61596159615965 595.2,99.13591359135916 601,98.53585358535861 606.8,99.94599459946002 612.5999999999999,98.89588958895894 618.3999999999999,98.86588658865892 624.1999999999998,99.70597059705975"
       fill="#ff9900"
       stroke="white"
       stroke-width="1"
       id="polygon14" />
    <polygon
       points="624.1999999999998,99.70597059705975 618.3999999999999,98.86588658865892 612.5999999999999,98.89588958895894 606.8,99.94599459946002 601,98.53585358535861 595.2,99.13591359135916 589.4000000000001,99.61596159615965 583.6000000000001,99.34593459345939 577.8000000000002,98.02580258025809 572.0000000000002,99.01590159015905 566.2000000000003,98.14581458145821 560.4000000000003,98.59585958595866 554.6000000000004,99.7659765976598 548.8000000000004,98.8658865886589 543.0000000000005,99.4659465946595 537.2000000000005,100.09600960096013 531.4000000000005,99.31593159315935 525.6000000000006,98.98589858985903 519.8000000000006,100.1560156015602 514.0000000000007,98.32583258325835 508.20000000000067,99.10591059105917 502.40000000000066,99.97599759976003 496.60000000000065,98.35583558355842 490.80000000000064,98.77587758775883 485.0000000000006,99.10591059105913 479.2000000000006,98.23582358235828 473.4000000000006,100.1560156015602 467.6000000000006,100.63606360636066 461.8000000000006,98.02580258025804 456.00000000000057,98.71587158715876 450.20000000000056,98.59585958595864 444.40000000000055,98.92589258925895 438.60000000000053,98.38583858385843 432.8000000000005,100.39603960396045 427.0000000000005,98.65586558655866 421.2000000000005,98.8658865886589 415.4000000000005,99.22592259225925 409.6000000000005,100.2460246024603 403.80000000000047,98.62586258625868 398.00000000000045,99.19591959195924 392.20000000000044,99.43594359435946 386.40000000000043,99.10591059105914 380.6000000000004,99.04590459045909 374.8000000000004,98.80588058805883 369.0000000000004,98.59585958595866 363.2000000000004,99.76597659765979 357.4000000000004,98.38583858385846 351.60000000000036,99.01590159015906 345.80000000000035,99.5559555955596 340.00000000000034,98.68586858685873 334.20000000000033,98.71587158715874 328.4000000000003,99.34593459345939 322.6000000000003,98.50585058505854 316.8000000000003,98.68586858685873 311.0000000000003,98.95589558955902 305.2000000000003,99.94599459946001 299.40000000000026,97.78577857785783 293.60000000000025,99.49594959495954 287.80000000000024,98.7458745874588 282.0000000000002,99.13591359135921 276.2000000000002,100.78607860786082 270.4000000000002,99.49594959495954 264.6000000000002,99.1659165916592 258.8000000000002,98.68586858685873 253.0000000000002,99.34593459345938 247.2000000000002,99.31593159315935 241.40000000000018,100.21602160216023 235.60000000000016,99.25592559255932 229.80000000000015,99.6759675967597 224.00000000000014,99.07590759075912 218.20000000000013,99.52595259525957 212.40000000000012,100.30603060306035 206.6000000000001,100.12601260126017 200.8000000000001,98.6858685868587 195.00000000000009,98.38583858385842 189.20000000000007,99.8859885988599 183.40000000000006,99.46594659465954 177.60000000000005,98.3558355835584 171.80000000000004,99.37593759375942 166.00000000000003,98.53585358535858 160.20000000000002,97.09570957095715 154.4,98.68586858685872 148.6,96.37563756375644 142.79999999999998,94.12541254125415 136.99999999999997,97.06570657065708 131.19999999999996,96.16561656165618 125.39999999999996,96.79567956795684 119.59999999999997,100.30603060306032 113.79999999999997,93.8253825382539 107.99999999999997,99.22592259225928 102.19999999999997,40.12001200120013 96.39999999999998,40.12001200120011 90.59999999999998,339.9399939993999 84.79999999999998,40 78.99999999999999,40.060006000600104 73.19999999999999,40.00000000000006 67.39999999999999,40.060006000600104 61.599999999999994,40.06000600060014 55.8,339.9099909990999 50,40.00000000000006 50,40.00000000000006 55.8,40.00000000000006 61.599999999999994,40.03000300030011 67.39999999999999,40.00000000000004 73.19999999999999,40.00000000000006 78.99999999999999,40.00000000000004 84.79999999999998,40 90.59999999999998,40.0300030003001 96.39999999999998,40.03000300030002 102.19999999999997,40.03000300030004 107.99999999999997,40.03000300030009 113.79999999999997,40.000000000000085 119.59999999999997,40.06000600060009 125.39999999999996,40.03000300030008 131.19999999999996,40.03000300030005 136.99999999999997,40.030003000300056 142.79999999999998,40.0600060006001 148.6,40.0300030003001 154.4,40.03000300030007 160.20000000000002,40.0300030003001 166.00000000000003,40.030003000300084 171.80000000000004,40.03000300030008 177.60000000000005,40.030003000300084 183.40000000000006,40.000000000000085 189.20000000000007,40.03000300030005 195.00000000000009,40.03000300030007 200.8000000000001,40.030003000300056 206.6000000000001,40.06000600060012 212.40000000000012,40.030003000300084 218.20000000000013,40.06000600060011 224.00000000000014,40.03000300030008 229.80000000000015,40.03000300030007 235.60000000000016,40.03000300030011 241.40000000000018,40.030003000300056 247.2000000000002,40.03000300030007 253.0000000000002,40.03000300030007 258.8000000000002,40.030003000300084 264.6000000000002,40.060006000600104 270.4000000000002,40.030003000300084 276.2000000000002,40.060006000600104 282.0000000000002,40.03000300030012 287.80000000000024,40.060006000600126 293.60000000000025,40.030003000300084 299.40000000000026,40.06000600060011 305.2000000000003,40.060006000600126 311.0000000000003,40.0300030003001 316.8000000000003,40.030003000300084 322.6000000000003,40.060006000600104 328.4000000000003,40.030003000300084 334.20000000000033,40.0600060006001 340.00000000000034,40.06000600060012 345.80000000000035,40.06000600060011 351.60000000000036,40.06000600060012 357.4000000000004,40.06000600060014 363.2000000000004,40.0600060006001 369.0000000000004,40.09000900090017 374.8000000000004,40.09000900090012 380.6000000000004,40.06000600060011 386.40000000000043,40.09000900090013 392.20000000000044,40.09000900090012 398.00000000000045,40.06000600060011 403.80000000000047,40.06000600060012 409.6000000000005,40.060006000600126 415.4000000000005,40.0600060006001 421.2000000000005,40.0600060006001 427.0000000000005,40.06000600060007 432.8000000000005,40.090009000900146 438.60000000000053,40.06000600060011 444.40000000000055,40.03000300030007 450.20000000000056,40.060006000600104 456.00000000000057,40.06000600060011 461.8000000000006,40.03000300030006 467.6000000000006,40.000000000000036 473.4000000000006,40.030003000300084 479.2000000000006,40.06000600060011 485.0000000000006,40.06000600060009 490.80000000000064,40.06000600060012 496.60000000000065,40.0300030003001 502.40000000000066,40.06000600060013 508.20000000000067,40.0300030003001 514.0000000000007,40.03000300030006 519.8000000000006,40.030003000300084 525.6000000000006,40.09000900090015 531.4000000000005,40.03000300030007 537.2000000000005,40.00000000000004 543.0000000000005,40.03000300030008 548.8000000000004,40.03000300030007 554.6000000000004,40.03000300030008 560.4000000000003,40.030003000300105 566.2000000000003,40.0300030003001 572.0000000000002,40.000000000000036 577.8000000000002,40.06000600060013 583.6000000000001,40.030003000300084 589.4000000000001,40.03000300030008 595.2,40.03000300030006 601,40.03000300030011 606.8,40.03000300030012 612.5999999999999,40.06000600060011 618.3999999999999,40.060006000600126 624.1999999999998,40.06000600060011"
       fill="#109618"
       stroke="white"
       stroke-width="1"
       style="opacity: 1;"
       id="polygon16" />
    <polygon
       points="624.1999999999998,40.06000600060011 618.3999999999999,40.060006000600126 612.5999999999999,40.06000600060011 606.8,40.03000300030012 601,40.03000300030011 595.2,40.03000300030006 589.4000000000001,40.03000300030008 583.6000000000001,40.030003000300084 577.8000000000002,40.06000600060013 572.0000000000002,40.000000000000036 566.2000000000003,40.0300030003001 560.4000000000003,40.030003000300105 554.6000000000004,40.03000300030008 548.8000000000004,40.03000300030007 543.0000000000005,40.03000300030008 537.2000000000005,40.00000000000004 531.4000000000005,40.03000300030007 525.6000000000006,40.09000900090015 519.8000000000006,40.030003000300084 514.0000000000007,40.03000300030006 508.20000000000067,40.0300030003001 502.40000000000066,40.06000600060013 496.60000000000065,40.0300030003001 490.80000000000064,40.06000600060012 485.0000000000006,40.06000600060009 479.2000000000006,40.06000600060011 473.4000000000006,40.030003000300084 467.6000000000006,40.000000000000036 461.8000000000006,40.03000300030006 456.00000000000057,40.06000600060011 450.20000000000056,40.060006000600104 444.40000000000055,40.03000300030007 438.60000000000053,40.06000600060011 432.8000000000005,40.090009000900146 427.0000000000005,40.06000600060007 421.2000000000005,40.0600060006001 415.4000000000005,40.0600060006001 409.6000000000005,40.060006000600126 403.80000000000047,40.06000600060012 398.00000000000045,40.06000600060011 392.20000000000044,40.09000900090012 386.40000000000043,40.09000900090013 380.6000000000004,40.06000600060011 374.8000000000004,40.09000900090012 369.0000000000004,40.09000900090017 363.2000000000004,40.0600060006001 357.4000000000004,40.06000600060014 351.60000000000036,40.06000600060012 345.80000000000035,40.06000600060011 340.00000000000034,40.06000600060012 334.20000000000033,40.0600060006001 328.4000000000003,40.030003000300084 322.6000000000003,40.060006000600104 316.8000000000003,40.030003000300084 311.0000000000003,40.0300030003001 305.2000000000003,40.060006000600126 299.40000000000026,40.06000600060011 293.60000000000025,40.030003000300084 287.80000000000024,40.060006000600126 282.0000000000002,40.03000300030012 276.2000000000002,40.060006000600104 270.4000000000002,40.030003000300084 264.6000000000002,40.060006000600104 258.8000000000002,40.030003000300084 253.0000000000002,40.03000300030007 247.2000000000002,40.03000300030007 241.40000000000018,40.030003000300056 235.60000000000016,40.03000300030011 229.80000000000015,40.03000300030007 224.00000000000014,40.03000300030008 218.20000000000013,40.06000600060011 212.40000000000012,40.030003000300084 206.6000000000001,40.06000600060012 200.8000000000001,40.030003000300056 195.00000000000009,40.03000300030007 189.20000000000007,40.03000300030005 183.40000000000006,40.000000000000085 177.60000000000005,40.030003000300084 171.80000000000004,40.03000300030008 166.00000000000003,40.030003000300084 160.20000000000002,40.0300030003001 154.4,40.03000300030007 148.6,40.0300030003001 142.79999999999998,40.0600060006001 136.99999999999997,40.030003000300056 131.19999999999996,40.03000300030005 125.39999999999996,40.03000300030008 119.59999999999997,40.06000600060009 113.79999999999997,40.000000000000085 107.99999999999997,40.03000300030009 102.19999999999997,40.03000300030004 96.39999999999998,40.03000300030002 90.59999999999998,40.0300030003001 84.79999999999998,40 78.99999999999999,40.00000000000004 73.19999999999999,40.00000000000006 67.39999999999999,40.00000000000004 61.599999999999994,40.03000300030011 55.8,40.00000000000006 50,40.00000000000006 50,40.00000000000006 55.8,40.00000000000006 61.599999999999994,40.03000300030011 67.39999999999999,40.00000000000004 73.19999999999999,40.00000000000006 78.99999999999999,40.00000000000004 84.79999999999998,40 90.59999999999998,40.0300030003001 96.39999999999998,40.03000300030002 102.19999999999997,40.03000300030004 107.99999999999997,40.03000300030009 113.79999999999997,40.000000000000085 119.59999999999997,40.06000600060009 125.39999999999996,40.03000300030008 131.19999999999996,40.03000300030005 136.99999999999997,40.030003000300056 142.79999999999998,40.0600060006001 148.6,40.0300030003001 154.4,40.03000300030007 160.20000000000002,40.0300030003001 166.00000000000003,40.030003000300084 171.80000000000004,40.03000300030008 177.60000000000005,40.030003000300084 183.40000000000006,40.000000000000085 189.20000000000007,40.03000300030005 195.00000000000009,40.03000300030007 200.8000000000001,40.030003000300056 206.6000000000001,40.06000600060012 212.40000000000012,40.030003000300084 218.20000000000013,40.06000600060011 224.00000000000014,40.03000300030008 229.80000000000015,40.03000300030007 235.60000000000016,40.03000300030011 241.40000000000018,40.030003000300056 247.2000000000002,40.03000300030007 253.0000000000002,40.03000300030007 258.8000000000002,40.030003000300084 264.6000000000002,40.060006000600104 270.4000000000002,40.030003000300084 276.2000000000002,40.060006000600104 282.0000000000002,40.03000300030012 287.80000000000024,40.060006000600126 293.60000000000025,40.030003000300084 299.40000000000026,40.06000600060011 305.2000000000003,40.060006000600126 311.0000000000003,40.0300030003001 316.8000000000003,40.030003000300084 322.6000000000003,40.060006000600104 328.4000000000003,40.030003000300084 334.20000000000033,40.0600060006001 340.00000000000034,40.03000300030009 345.80000000000035,40.06000600060011 351.60000000000036,40.06000600060012 357.4000000000004,40.03000300030011 363.2000000000004,40.0600060006001 369.0000000000004,40.06000600060014 374.8000000000004,40.06000600060009 380.6000000000004,40.030003000300084 386.40000000000043,40.09000900090013 392.20000000000044,40.06000600060009 398.00000000000045,40.030003000300084 403.80000000000047,40.03000300030009 409.6000000000005,40.0300030003001 415.4000000000005,40.03000300030007 421.2000000000005,40.0600060006001 427.0000000000005,40.06000600060007 432.8000000000005,40.090009000900146 438.60000000000053,40.06000600060011 444.40000000000055,40.03000300030007 450.20000000000056,40.060006000600104 456.00000000000057,40.06000600060011 461.8000000000006,40.03000300030006 467.6000000000006,40.000000000000036 473.4000000000006,40.030003000300084 479.2000000000006,40.06000600060011 485.0000000000006,40.06000600060009 490.80000000000064,40.06000600060012 496.60000000000065,40.0300030003001 502.40000000000066,40.06000600060013 508.20000000000067,40.0300030003001 514.0000000000007,40.03000300030006 519.8000000000006,40.030003000300084 525.6000000000006,40.09000900090015 531.4000000000005,40.03000300030007 537.2000000000005,40.00000000000004 543.0000000000005,40.03000300030008 548.8000000000004,40.03000300030007 554.6000000000004,40.03000300030008 560.4000000000003,40.030003000300105 566.2000000000003,40.0300030003001 572.0000000000002,40.000000000000036 577.8000000000002,40.06000600060013 583.6000000000001,40.030003000300084 589.4000000000001,40.03000300030008 595.2,40.03000300030006 601,40.03000300030011 606.8,40.03000300030012 612.5999999999999,40.06000600060011 618.3999999999999,40.060006000600126 624.1999999999998,40.06000600060011"
       fill="#990099"
       stroke="white"
       stroke-width="1"
       id="polygon18" />
  </g>
  <g
     id="g20">
    <line
       x1="50"
       y1="340"
       x2="50"
       y2="40"
       stroke="black"
       stroke-width="1"
       id="line22" />
    <line
       x1="50"
       y1="340"
       x2="40"
       y2="340"
       stroke="black"
       stroke-width="1"
       id="line24" />
    <text
       x="35"
       y="344"
       text-anchor="end"
       font-family="Helvetica"
       font-weight="100"
       font-size="12"
       id="text26">0</text>
    <line
       x1="50"
       y1="334"
       x2="45"
       y2="334"
       stroke="black"
       stroke-width="1"
       id="line28" />
    <line
       x1="50"
       y1="328"
       x2="45"
       y2="328"
       stroke="black"
       stroke-width="1"
       id="line30" />
    <line
       x1="50"
       y1="322"
       x2="45"
       y2="322"
       stroke="black"
       stroke-width="1"
       id="line32" />
    <line
       x1="50"
       y1="316"
       x2="45"
       y2="316"
       stroke="black"
       stroke-width="1"
       id="line34" />
    <line
       x1="50"
       y1="310"
       x2="40"
       y2="310"
       stroke="black"
       stroke-width="1"
       id="line36" />
    <text
       x="35"
       y="314"
       text-anchor="end"
       font-family="Helvetica"
       font-weight="100"
       font-size="12"
       id="text38">10</text>
    <line
       x1="50"
       y1="304"
       x2="45"
       y2="304"
       stroke="black"
       stroke-width="1"
       id="line40" />
    <line
       x1="50"
       y1="298"
       x2="45"
       y2="298"
       stroke="black"
       stroke-width="1"
       id="line42" />
    <line
       x1="50"
       y1="292"
       x2="45"
       y2="292"
       stroke="black"
       stroke-width="1"
       id="line44" />
    <line
       x1="50"
       y1="286"
       x2="45"
       y2="286"
       stroke="black"
       stroke-width="1"
       id="line46" />
    <line
       x1="50"
       y1="280"
       x2="40"
       y2="280"
       stroke="black"
       stroke-width="1"
       id="line48" />
    <text
       x="35"
       y="284"
       text-anchor="end"
       font-family="Helvetica"
       font-weight="100"
       font-size="12"
       id="text50">20</text>
    <line
       x1="50"
       y1="274"
       x2="45"
       y2="274"
       stroke="black"
       stroke-width="1"
       id="line52" />
    <line
       x1="50"
       y1="268"
       x2="45"
       y2="268"
       stroke="black"
       stroke-width="1"
       id="line54" />
    <line
       x1="50"
       y1="262"
       x2="45"
       y2="262"
       stroke="black"
       stroke-width="1"
       id="line56" />
    <line
       x1="50"
       y1="256"
       x2="45"
       y2="256"
       stroke="black"
       stroke-width="1"
       id="line58" />
    <line
       x1="50"
       y1="250"
       x2="40"
       y2="250"
       stroke="black"
       stroke-width="1"
       id="line60" />
    <text
       x="35"
       y="254"
       text-anchor="end"
       font-family="Helvetica"
       font-weight="100"
       font-size="12"
       id="text62">30</text>
    <line
       x1="50"
       y1="244"
       x2="45"
       y2="244"
       stroke="black"
       stroke-width="1"
       id="line64" />
    <line
       x1="50"
       y1="238"
       x2="45"
       y2="238"
       stroke="black"
       stroke-width="1"
       id="line66" />
    <line
       x1="50"
       y1="232"
       x2="45"
       y2="232"
       stroke="black"
       stroke-width="1"
       id="line68" />
    <line
       x1="50"
       y1="226"
       x2="45"
       y2="226"
       stroke="black"
       stroke-width="1"
       id="line70" />
    <line
       x1="50"
       y1="220"
       x2="40"
       y2="220"
       stroke="black"
       stroke-width="1"
       id="line72" />
    <text
       x="35"
       y="224"
       text-anchor="end"
       font-family="Helvetica"
       font-weight="100"
       font-size="12"
       id="text74">40</text>
    <line
       x1="50"
       y1="214"
       x2="45"
       y2="214"
       stroke="black"
       stroke-width="1"
       id="line76" />
    <line
       x1="50"
       y1="208"
       x2="45"
       y2="208"
       stroke="black"
       stroke-width="1"
       id="line78" />
    <line
       x1="50"
       y1="202"
       x2="45"
       y2="202"
       stroke="black"
       stroke-width="1"
       id="line80" />
    <line
       x1="50"
       y1="196"
       x2="45"
       y2="196"
       stroke="black"
       stroke-width="1"
       id="line82" />
    <line
       x1="50"
       y1="190"
       x2="40"
       y2="190"
       stroke="black"
       stroke-width="1"
       id="line84" />
    <text
       x="35"
       y="194"
       text-anchor="end"
       font-family="Helvetica"
       font-weight="100"
       font-size="12"
       id="text86">50</text>
    <line
       x1="50"
       y1="184"
       x2="45"
       y2="184"
       stroke="black"
       stroke-width="1"
       id="line88" />
    <line
       x1="50"
       y1="178"
       x2="45"
       y2="178"
       stroke="black"
       stroke-width="1"
       id="line90" />
    <line
       x1="50"
       y1="172"
       x2="45"
       y2="172"
       stroke="black"
       stroke-width="1"
       id="line92" />
    <line
       x1="50"
       y1="166"
       x2="45"
       y2="166"
       stroke="black"
       stroke-width="1"
       id="line94" />
    <line
       x1="50"
       y1="160"
       x2="40"
       y2="160"
       stroke="black"
       stroke-width="1"
       id="line96" />
    <text
       x="35"
       y="164"
       text-anchor="end"
       font-family="Helvetica"
       font-weight="100"
       font-size="12"
       id="text98">60</text>
    <line
       x1="50"
       y1="154"
       x2="45"
       y2="154"
       stroke="black"
       stroke-width="1"
       id="line100" />
    <line
       x1="50"
       y1="148"
       x2="45"
       y2="148"
       stroke="black"
       stroke-width="1"
       id="line102" />
    <line
       x1="50"
       y1="142"
       x2="45"
       y2="142"
       stroke="black"
       stroke-width="1"
       id="line104" />
    <line
       x1="50"
       y1="136"
       x2="45"
       y2="136"
       stroke="black"
       stroke-width="1"
       id="line106" />
    <line
       x1="50"
       y1="130"
       x2="40"
       y2="130"
       stroke="black"
       stroke-width="1"
       id="line108" />
    <text
       x="35"
       y="134"
       text-anchor="end"
       font-family="Helvetica"
       font-weight="100"
       font-size="12"
       id="text110">70</text>
    <line
       x1="50"
       y1="124"
       x2="45"
       y2="124"
       stroke="black"
       stroke-width="1"
       id="line112" />
    <line
       x1="50"
       y1="118"
       x2="45"
       y2="118"
       stroke="black"
       stroke-width="1"
       id="line114" />
    <line
       x1="50"
       y1="112"
       x2="45"
       y2="112"
       stroke="black"
       stroke-width="1"
       id="line116" />
    <line
       x1="50"
       y1="106"
       x2="45"
       y2="106"
       stroke="black"
       stroke-width="1"
       id="line118" />
    <line
       x1="50"
       y1="100"
       x2="40"
       y2="100"
       stroke="black"
       stroke-width="1"
       id="line120" />
    <text
       x="35"
       y="104"
       text-anchor="end"
       font-family="Helvetica"
       font-weight="100"
       font-size="12"
       id="text122">80</text>
    <line
       x1="50"
       y1="94"
       x2="45"
       y2="94"
       stroke="black"
       stroke-width="1"
       id="line124" />
    <line
       x1="50"
       y1="88"
       x2="45"
       y2="88"
       stroke="black"
       stroke-width="1"
       id="line126" />
    <line
       x1="50"
       y1="82"
       x2="45"
       y2="82"
       stroke="black"
       stroke-width="1"
       id="line128" />
    <line
       x1="50"
       y1="76"
       x2="45"
       y2="76"
       stroke="black"
       stroke-width="1"
       id="line130" />
    <line
       x1="50"
       y1="70"
       x2="40"
       y2="70"
       stroke="black"
       stroke-width="1"
       id="line132" />
    <text
       x="35"
       y="74"
       text-anchor="end"
       font-family="Helvetica"
       font-weight="100"
       font-size="12"
       id="text134">90</text>
    <line
       x1="50"
       y1="64"
       x2="45"
       y2="64"
       stroke="black"
       stroke-width="1"
       id="line136" />
    <line
       x1="50"
       y1="58"
       x2="45"
       y2="58"
       stroke="black"
       stroke-width="1"
       id="line138" />
    <line
       x1="50"
       y1="52"
       x2="45"
       y2="52"
       stroke="black"
       stroke-width="1"
       id="line140" />
    <line
       x1="50"
       y1="46"
       x2="45"
       y2="46"
       stroke="black"
       stroke-width="1"
       id="line142" />
    <line
       x1="50"
       y1="40"
       x2="40"
       y2="40"
       stroke="black"
       stroke-width="1"
       id="line144" />
    <text
       x="35"
       y="44"
       text-anchor="end"
       font-family="Helvetica"
       font-weight="100"
       font-size="12"
       id="text146">100</text>
  </g>
  <g
     id="g148">
    <line
       x1="50"
       y1="340"
       x2="630"
       y2="340"
       stroke="black"
       stroke-width="1"
       id="line150" />
    <line
       x1="50"
       y1="340"
       x2="50"
       y2="350"
       stroke="black"
       stroke-width="1"
       id="line152" />
    <text
       x="50"
       y="362"
       text-anchor="middle"
       font-family="Helvetica"
       font-weight="100"
       font-size="12"
       id="text154">0</text>
    <line
       x1="61.6"
       y1="340"
       x2="61.6"
       y2="345"
       stroke="black"
       stroke-width="1"
       id="line156" />
    <line
       x1="73.2"
       y1="340"
       x2="73.2"
       y2="345"
       stroke="black"
       stroke-width="1"
       id="line158" />
    <line
       x1="84.8"
       y1="340"
       x2="84.8"
       y2="345"
       stroke="black"
       stroke-width="1"
       id="line160" />
    <line
       x1="96.39999999999999"
       y1="340"
       x2="96.39999999999999"
       y2="345"
       stroke="black"
       stroke-width="1"
       id="line162" />
    <line
       x1="108"
       y1="340"
       x2="108"
       y2="350"
       stroke="black"
       stroke-width="1"
       id="line164" />
    <text
       x="108"
       y="362"
       text-anchor="middle"
       font-family="Helvetica"
       font-weight="100"
       font-size="12"
       id="text166">10</text>
    <line
       x1="119.6"
       y1="340"
       x2="119.6"
       y2="345"
       stroke="black"
       stroke-width="1"
       id="line168" />
    <line
       x1="131.2"
       y1="340"
       x2="131.2"
       y2="345"
       stroke="black"
       stroke-width="1"
       id="line170" />
    <line
       x1="142.79999999999998"
       y1="340"
       x2="142.79999999999998"
       y2="345"
       stroke="black"
       stroke-width="1"
       id="line172" />
    <line
       x1="154.39999999999998"
       y1="340"
       x2="154.39999999999998"
       y2="345"
       stroke="black"
       stroke-width="1"
       id="line174" />
    <line
       x1="166"
       y1="340"
       x2="166"
       y2="350"
       stroke="black"
       stroke-width="1"
       id="line176" />
    <text
       x="166"
       y="362"
       text-anchor="middle"
       font-family="Helvetica"
       font-weight="100"
       font-size="12"
       id="text178">20</text>
    <line
       x1="177.6"
       y1="340"
       x2="177.6"
       y2="345"
       stroke="black"
       stroke-width="1"
       id="line180" />
    <line
       x1="189.2"
       y1="340"
       x2="189.2"
       y2="345"
       stroke="black"
       stroke-width="1"
       id="line182" />
    <line
       x1="200.79999999999998"
       y1="340"
       x2="200.79999999999998"
       y2="345"
       stroke="black"
       stroke-width="1"
       id="line184" />
    <line
       x1="212.39999999999998"
       y1="340"
       x2="212.39999999999998"
       y2="345"
       stroke="black"
       stroke-width="1"
       id="line186" />
    <line
       x1="224"
       y1="340"
       x2="224"
       y2="350"
       stroke="black"
       stroke-width="1"
       id="line188" />
    <text
       x="224"
       y="362"
       text-anchor="middle"
       font-family="Helvetica"
       font-weight="100"
       font-size="12"
       id="text190">30</text>
    <line
       x1="235.6"
       y1="340"
       x2="235.6"
       y2="345"
       stroke="black"
       stroke-width="1"
       id="line192" />
    <line
       x1="247.2"
       y1="340"
       x2="247.2"
       y2="345"
       stroke="black"
       stroke-width="1"
       id="line194" />
    <line
       x1="258.8"
       y1="340"
       x2="258.8"
       y2="345"
       stroke="black"
       stroke-width="1"
       id="line196" />
    <line
       x1="270.40000000000003"
       y1="340"
       x2="270.40000000000003"
       y2="345"
       stroke="black"
       stroke-width="1"
       id="line198" />
    <line
       x1="282"
       y1="340"
       x2="282"
       y2="350"
       stroke="black"
       stroke-width="1"
       id="line200" />
    <text
       x="282"
       y="362"
       text-anchor="middle"
       font-family="Helvetica"
       font-weight="100"
       font-size="12"
       id="text202">40</text>
    <line
       x1="293.6"
       y1="340"
       x2="293.6"
       y2="345"
       stroke="black"
       stroke-width="1"
       id="line204" />
    <line
       x1="305.20000000000005"
       y1="340"
       x2="305.20000000000005"
       y2="345"
       stroke="black"
       stroke-width="1"
       id="line206" />
    <line
       x1="316.80000000000007"
       y1="340"
       x2="316.80000000000007"
       y2="345"
       stroke="black"
       stroke-width="1"
       id="line208" />
    <line
       x1="328.4000000000001"
       y1="340"
       x2="328.4000000000001"
       y2="345"
       stroke="black"
       stroke-width="1"
       id="line210" />
    <line
       x1="340"
       y1="340"
       x2="340"
       y2="350"
       stroke="black"
       stroke-width="1"
       id="line212" />
    <text
       x="340"
       y="362"
       text-anchor="middle"
       font-family="Helvetica"
       font-weight="100"
       font-size="12"
       id="text214">50</text>
    <line
       x1="351.6"
       y1="340"
       x2="351.6"
       y2="345"
       stroke="black"
       stroke-width="1"
       id="line216" />
    <line
       x1="363.20000000000005"
       y1="340"
       x2="363.20000000000005"
       y2="345"
       stroke="black"
       stroke-width="1"
       id="line218" />
    <line
       x1="374.80000000000007"
       y1="340"
       x2="374.80000000000007"
       y2="345"
       stroke="black"
       stroke-width="1"
       id="line220" />
    <line
       x1="386.4000000000001"
       y1="340"
       x2="386.4000000000001"
       y2="345"
       stroke="black"
       stroke-width="1"
       id="line222" />
    <line
       x1="398"
       y1="340"
       x2="398"
       y2="350"
       stroke="black"
       stroke-width="1"
       id="line224" />
    <text
       x="398"
       y="362"
       text-anchor="middle"
       font-family="Helvetica"
       font-weight="100"
       font-size="12"
       id="text226">60</text>
    <line
       x1="409.6"
       y1="340"
       x2="409.6"
       y2="345"
       stroke="black"
       stroke-width="1"
       id="line228" />
    <line
       x1="421.20000000000005"
       y1="340"
       x2="421.20000000000005"
       y2="345"
       stroke="black"
       stroke-width="1"
       id="line230" />
    <line
       x1="432.80000000000007"
       y1="340"
       x2="432.80000000000007"
       y2="345"
       stroke="black"
       stroke-width="1"
       id="line232" />
    <line
       x1="444.4000000000001"
       y1="340"
       x2="444.4000000000001"
       y2="345"
       stroke="black"
       stroke-width="1"
       id="line234" />
    <line
       x1="456"
       y1="340"
       x2="456"
       y2="350"
       stroke="black"
       stroke-width="1"
       id="line236" />
    <text
       x="456"
       y="362"
       text-anchor="middle"
       font-family="Helvetica"
       font-weight="100"
       font-size="12"
       id="text238">70</text>
    <line
       x1="467.6"
       y1="340"
       x2="467.6"
       y2="345"
       stroke="black"
       stroke-width="1"
       id="line240" />
    <line
       x1="479.20000000000005"
       y1="340"
       x2="479.20000000000005"
       y2="345"
       stroke="black"
       stroke-width="1"
       id="line242" />
    <line
       x1="490.80000000000007"
       y1="340"
       x2="490.80000000000007"
       y2="345"
       stroke="black"
       stroke-width="1"
       id="line244" />
    <line
       x1="502.4000000000001"
       y1="340"
       x2="502.4000000000001"
       y2="345"
       stroke="black"
       stroke-width="1"
       id="line246" />
    <line
       x1="514"
       y1="340"
       x2="514"
       y2="350"
       stroke="black"
       stroke-width="1"
       id="line248" />
    <text
       x="514"
       y="362"
       text-anchor="middle"
       font-family="Helvetica"
       font-weight="100"
       font-size="12"
       id="text250">80</text>
    <line
       x1="525.6"
       y1="340"
       x2="525.6"
       y2="345"
       stroke="black"
       stroke-width="1"
       id="line252" />
    <line
       x1="537.2"
       y1="340"
       x2="537.2"
       y2="345"
       stroke="black"
       stroke-width="1"
       id="line254" />
    <line
       x1="548.8000000000001"
       y1="340"
       x2="548.8000000000001"
       y2="345"
       stroke="black"
       stroke-width="1"
       id="line256" />
    <line
       x1="560.4000000000001"
       y1="340"
       x2="560.4000000000001"
       y2="345"
       stroke="black"
       stroke-width="1"
       id="line258" />
    <line
       x1="572"
       y1="340"
       x2="572"
       y2="350"
       stroke="black"
       stroke-width="1"
       id="line260" />
    <text
       x="572"
       y="362"
       text-anchor="middle"
       font-family="Helvetica"
       font-weight="100"
       font-size="12"
       id="text262">90</text>
    <line
       x1="583.6"
       y1="340"
       x2="583.6"
       y2="345"
       stroke="black"
       stroke-width="1"
       id="line264" />
    <line
       x1="595.2"
       y1="340"
       x2="595.2"
       y2="345"
       stroke="black"
       stroke-width="1"
       id="line266" />
    <line
       x1="606.8000000000001"
       y1="340"
       x2="606.8000000000001"
       y2="345"
       stroke="black"
       stroke-width="1"
       id="line268" />
    <line
       x1="618.4000000000001"
       y1="340"
       x2="618.4000000000001"
       y2="345"
       stroke="black"
       stroke-width="1"
       id="line270" />
    <line
       x1="630"
       y1="340"
       x2="630"
       y2="350"
       stroke="black"
       stroke-width="1"
       id="line272" />
    <text
       x="630"
       y="362"
       text-anchor="middle"
       font-family="Helvetica"
       font-weight="100"
       font-size="12"
       id="text274">100</text>
  </g>
  <g
     id="g276">
    <rect
       x="650"
       y="50"
       width="15"
       height="15"
       stroke="white"
       stroke-width="0"
       fill="#3366cc"
       id="rect278" />
    <text
       x="680"
       y="63"
       font-size="15"
       font-weight="normal"
       font-family="Helvetica"
       style="cursor: default;"
       id="text280">A</text>
    <rect
       x="650"
       y="75"
       width="15"
       height="15"
       stroke="white"
       stroke-width="0"
       fill="#dc3912"
       id="rect282" />
    <text
       x="680"
       y="88"
       font-size="15"
       font-weight="normal"
       font-family="Helvetica"
       style="cursor: default;"
       id="text284">T</text>
    <rect
       x="650"
       y="100"
       width="15"
       height="15"
       stroke="white"
       stroke-width="0"
       fill="#ff9900"
       id="rect286" />
    <text
       x="680"
       y="113"
       font-size="15"
       font-weight="normal"
       font-family="Helvetica"
       style="cursor: default;"
       id="text288">C</text>
    <rect
       x="650"
       y="125"
       width="15"
       height="15"
       stroke="white"
       stroke-width="0"
       fill="#109618"
       id="rect290" />
    <text
       x="680"
       y="138"
       font-size="15"
       font-weight="normal"
       font-family="Helvetica"
       style="cursor: default; font-weight: normal;"
       id="text292">G</text>
    <rect
       x="650"
       y="150"
       width="15"
       height="15"
       stroke="white"
       stroke-width="0"
       fill="#990099"
       id="rect294" />
    <text
       x="680"
       y="163"
       font-size="15"
       font-weight="normal"
       font-family="Helvetica"
       style="cursor: default;"
       id="text296">N</text>
  </g>
  <text
     xml:space="preserve"
     style="font-style:normal;font-weight:normal;font-size:40px;line-height:125%;font-family:Sans;letter-spacing:0px;word-spacing:0px;fill:#000000;fill-opacity:1;stroke:none;stroke-width:1px;stroke-linecap:butt;stroke-linejoin:miter;stroke-opacity:1"
     x="127.56902"
     y="25.337824"
     id="text3630"
     sodipodi:linespacing="125%"><tspan
       sodipodi:role="line"
       id="tspan3632"
       x="127.56902"
       y="25.337824"
       style="font-size:25px">CFMinusHealthy  (mgm4441908.3)</tspan></text>
</svg>
